<svg xmlns="http://www.w3.org/2000/svg" aria-hidden="true" focusable="false">
  <defs>
    <symbol id="brain" viewBox="0 0 64 64">
      <path d="M30 10c-6-5-16-1-16 8-6 1-9 7-6 13-4 6 0 14 8 14 1 7 9 10 14 5 5 5 13 2 14-5 8 0 12-8 8-14 3-6 0-12-6-13 0-9-10-13-16-8Z" fill="none" stroke="currentColor" stroke-linecap="round" stroke-linejoin="round" stroke-width="3.5"/>
      <path d="M30 10v42M20 18c5 1 7 5 6 10m-9 4c6-1 10 2 9 8m21-22c-5 1-7 5-6 10m9 4c-6-1-10 2-9 8" fill="none" stroke="currentColor" stroke-linecap="round" stroke-width="3"/>
      <circle cx="22" cy="25" r="2" fill="currentColor"/><circle cx="40" cy="25" r="2" fill="currentColor"/>
    </symbol>
    <symbol id="memory" viewBox="0 0 64 64">
      <rect x="9" y="10" width="20" height="20" rx="4" fill="none" stroke="currentColor" stroke-width="3"/>
      <rect x="35" y="10" width="20" height="20" rx="4" fill="none" stroke="currentColor" stroke-width="3"/>
      <rect x="9" y="36" width="20" height="20" rx="4" fill="none" stroke="currentColor" stroke-width="3"/>
      <rect x="35" y="36" width="20" height="20" rx="4" fill="none" stroke="currentColor" stroke-width="3"/>
      <path d="M15 20h8m18 0h8M15 46h8m18 0h8" stroke="currentColor" stroke-linecap="round" stroke-width="3"/>
    </symbol>
    <symbol id="numbers" viewBox="0 0 64 64">
      <circle cx="32" cy="32" r="23" fill="none" stroke="currentColor" stroke-width="3"/>
      <circle cx="32" cy="32" r="14" fill="none" stroke="currentColor" stroke-width="3"/>
      <path d="M28 25h4v15m6-10h5m-5 0 5 8" fill="none" stroke="currentColor" stroke-linecap="round" stroke-linejoin="round" stroke-width="3.5"/>
    </symbol>
    <symbol id="bone" viewBox="0 0 64 64">
      <path d="M20 18a7 7 0 1 0-8 8l20 20a7 7 0 1 0 8-8l-20-20Zm24 28a7 7 0 1 0 8-8L32 18a7 7 0 1 0-8 8l20 20Z" fill="none" stroke="currentColor" stroke-linecap="round" stroke-linejoin="round" stroke-width="3"/>
    </symbol>
    <symbol id="hand" viewBox="0 0 64 64">
      <path d="M21 31V17a3 3 0 0 1 6 0v12m0-15a3 3 0 0 1 6 0v15m0-12a3 3 0 0 1 6 0v14m0-9a3 3 0 0 1 6 0v17c0 8-6 13-14 13-7 0-11-4-14-9l-5-9a4 4 0 0 1 7-4l3 5V31" fill="none" stroke="currentColor" stroke-linecap="round" stroke-linejoin="round" stroke-width="3"/>
    </symbol>
    <symbol id="mobility" viewBox="0 0 64 64">
      <path d="M24 11c5 0 8 6 8 13v7l10 6c4 3 3 9-2 10l-9 1c-6 1-13-2-16-7l-4-7c-2-4 2-8 6-5l5 4V24c0-7-3-8-3-10 0-2 2-3 5-3Z" fill="none" stroke="currentColor" stroke-linecap="round" stroke-linejoin="round" stroke-width="3"/>
      <path d="M37 13h14m-7-7v14" stroke="currentColor" stroke-linecap="round" stroke-width="3"/>
    </symbol>
    <symbol id="eye" viewBox="0 0 64 64">
      <path d="M7 32s9-15 25-15 25 15 25 15-9 15-25 15S7 32 7 32Z" fill="none" stroke="currentColor" stroke-linecap="round" stroke-linejoin="round" stroke-width="3"/>
      <circle cx="32" cy="32" r="8" fill="none" stroke="currentColor" stroke-width="3"/>
    </symbol>
    <symbol id="neural" viewBox="0 0 64 64">
      <circle cx="16" cy="16" r="5" fill="none" stroke="currentColor" stroke-width="3"/>
      <circle cx="48" cy="18" r="5" fill="none" stroke="currentColor" stroke-width="3"/>
      <circle cx="32" cy="48" r="5" fill="none" stroke="currentColor" stroke-width="3"/>
      <path d="m20 19 23-1M19 21l10 22m17-20-10 20" stroke="currentColor" stroke-linecap="round" stroke-width="3"/>
      <path d="m31 25-4 8h6l-3 7 9-11h-6l4-7Z" fill="currentColor"/>
    </symbol>
    <symbol id="puzzle" viewBox="0 0 64 64">
      <path d="M27 11h10v8a6 6 0 1 0 8 0v-8h8v16h-7a6 6 0 1 0 0 8h7v8H37v-7a6 6 0 1 0-8 0v7H11V37h8a6 6 0 1 0 0-8h-8V11h16Z" fill="none" stroke="currentColor" stroke-linecap="round" stroke-linejoin="round" stroke-width="3"/>
    </symbol>
    <symbol id="speech" viewBox="0 0 64 64">
      <path d="M11 14h42v29H31L20 53v-10h-9V14Z" fill="none" stroke="currentColor" stroke-linecap="round" stroke-linejoin="round" stroke-width="3"/>
      <path d="M21 28h22m-22 7h15" stroke="currentColor" stroke-linecap="round" stroke-width="3"/>
    </symbol>
  </defs>
</svg>
